<svg width="45" height="45" viewBox="0 0 45 45" fill="none" xmlns="http://www.w3.org/2000/svg">
<g clip-path="url(#clip0_718_9207)">
<path d="M18.4812 29.6879L27.0154 13.9346M18.4812 29.6879C18.123 30.3508 17.9044 31.0801 17.8391 31.8308C17.7738 32.5815 17.8631 33.3376 18.1015 34.0524C18.3398 34.7672 18.7222 35.4256 19.225 35.9869C19.7277 36.5481 20.3402 37.0004 21.0246 37.3156C21.709 37.6309 22.4508 37.8025 23.2041 37.8199C23.9574 37.8372 24.7063 37.7 25.4045 37.4166C26.1027 37.1332 26.7354 36.7097 27.2635 36.1722C27.7916 35.6347 28.2039 34.9946 28.4749 34.2915M18.4812 29.6879C18.1215 30.35 17.63 30.9314 17.0368 31.3962C16.4437 31.8609 15.7616 32.1991 15.0326 32.3899C14.3037 32.5807 13.5433 32.62 12.7986 32.5054C12.0538 32.3908 11.3404 32.1248 10.7025 31.7237C10.0646 31.3226 9.5157 30.795 9.08969 30.1735C8.66367 29.552 8.36959 28.8497 8.22562 28.1101C8.08165 27.3704 8.09083 26.6091 8.25261 25.8732C8.41439 25.1372 8.72533 24.4423 9.16623 23.8312M27.0154 13.9346C27.3174 13.3769 27.7438 12.8962 28.2613 12.5297C28.7789 12.1632 29.3738 11.9206 30.0001 11.8208C30.6264 11.721 31.2673 11.7666 31.8732 11.9541C32.479 12.1416 33.0336 12.4659 33.4941 12.9021C33.9545 13.3382 34.3085 13.8744 34.5285 14.4692C34.7486 15.064 34.8289 15.7015 34.7631 16.3323C34.6974 16.9631 34.4875 17.5703 34.1495 18.107C33.8116 18.6436 33.3547 19.0954 32.8143 19.4272M27.0154 13.9346C27.3175 13.3769 27.4873 12.7573 27.5116 12.1236C27.5359 11.4898 27.4141 10.859 27.1557 10.2798C26.8972 9.70069 26.5089 9.18878 26.0209 8.78369C25.5329 8.37861 24.9583 8.09122 24.3415 7.94374C23.7247 7.79627 23.0822 7.79268 22.4638 7.93323C21.8453 8.07379 21.2675 8.35474 20.775 8.75433C20.2825 9.15393 19.8886 9.66146 19.6236 10.2377C19.3587 10.8139 19.2298 11.4433 19.247 12.0773M25.3989 25.5983C24.5165 24.7239 23.9412 23.587 23.7592 22.3581C23.5772 21.1292 23.7984 19.8744 24.3895 18.7817C23.7971 19.8737 22.8668 20.7443 21.738 21.2631C20.6092 21.7819 19.3427 21.921 18.1282 21.6595M34.2004 18.0229C34.8135 18.592 35.289 19.293 35.5911 20.0731C35.8931 20.8531 36.0136 21.6916 35.9436 22.5251C35.8735 23.3586 35.6147 24.1653 35.1868 24.8839C34.7588 25.6026 34.173 26.2145 33.4735 26.6732M25.7519 33.6267C26.8189 34.2047 28.0468 34.4145 29.2452 34.2235C30.4436 34.0325 31.5455 33.4514 32.38 32.5704C33.2145 31.6894 33.7349 30.5576 33.8607 29.3507C33.9864 28.1437 33.7104 26.929 33.0754 25.8949M11.2104 25.749C10.1435 25.1709 9.29705 24.2569 8.80245 23.1488C8.30786 22.0407 8.19273 20.8003 8.4749 19.6201C8.75707 18.4398 9.42079 17.3857 10.3631 16.6211C11.3054 15.8565 12.4737 15.4242 13.6868 15.3912M19.6662 10.1491C18.8547 9.94642 18.0077 9.93101 17.1893 10.1041C16.371 10.2772 15.6028 10.6342 14.9428 11.1481C14.2829 11.6621 13.7486 12.3195 13.3803 13.0705C13.0121 13.8215 12.8196 14.6465 12.8173 15.4829" stroke="#9B7AFD" stroke-width="2.06728" stroke-linecap="round" stroke-linejoin="round"/>
</g>
<defs>
<clipPath id="clip0_718_9207">
<rect width="33.0765" height="33.0765" fill="white" transform="translate(15.7559) rotate(28.4462)"/>
</clipPath>
</defs>
</svg>
